<svg width="1437" height="1487" viewBox="0 0 1437 1487" fill="none" xmlns="http://www.w3.org/2000/svg">
<ellipse cx="711" cy="740.5" rx="711" ry="683.5" fill="black"/>
<path d="M262 465V275H645C550 315 494.513 374.784 550 465H262Z" fill="#FF4FD8"/>
<path d="M1175.5 465H615C579.383 368.7 625.701 331.667 745 275H1175.5V465Z" fill="#FF4FD8"/>
<path d="M514.379 871V545.5H760V1206H514.379V871Z" fill="#FF4FD8"/>
<path d="M262 465V275H645C550 315 494.513 374.784 550 465H262Z" stroke="black"/>
<path d="M1175.5 465H615C579.383 368.7 625.701 331.667 745 275H1175.5V465Z" stroke="black"/>
<path d="M514.379 871V545.5H760V1206H514.379V871Z" stroke="black"/>
<path d="M953.663 509.325C516.165 698.198 821.35 712.558 1028.63 696.129L981.966 1050.11L227.157 1208.93L306.327 1052.29L806.146 884.412C648.363 843.356 512.937 718.749 464.948 661.578L952.756 228.24L953.663 509.325Z" fill="#2963BB" stroke="#A21C1C"/>
</svg>
