<svg width="475" height="365" viewBox="0 0 475 365" fill="none" xmlns="http://www.w3.org/2000/svg">
<rect x="0.79187" y="3.58734" width="471" height="361" transform="rotate(-0.385194 0.79187 3.58734)" fill="url(#paint0_linear)"/>
<circle cx="48" cy="76" r="1" fill="#F5F5F5"/>
<circle cx="30" cy="37" r="1" fill="#F5F5F5"/>
<circle cx="12" cy="38" r="1" fill="#F5F5F5"/>
<circle cx="113.5" cy="19.5" r="0.5" transform="rotate(-180 113.5 19.5)" fill="#F5F5F5"/>
<circle cx="27.5" cy="23.5" r="0.5" transform="rotate(-180 27.5 23.5)" fill="#F5F5F5"/>
<circle cx="113.5" cy="92.5" r="0.5" transform="rotate(-180 113.5 92.5)" fill="#F5F5F5"/>
<circle cx="6.5" cy="50.5" r="0.5" transform="rotate(-180 6.5 50.5)" fill="#F5F5F5"/>
<circle cx="21.5" cy="93.5" r="0.5" transform="rotate(-180 21.5 93.5)" fill="#F5F5F5"/>
<circle cx="42.5" cy="85.5" r="0.5" transform="rotate(-180 42.5 85.5)" fill="#F5F5F5"/>
<circle cx="56.5" cy="38.5" r="0.5" transform="rotate(-180 56.5 38.5)" fill="#F5F5F5"/>
<circle cx="96.5" cy="43.5" r="0.5" transform="rotate(-180 96.5 43.5)" fill="#F5F5F5"/>
<circle cx="118.5" cy="66.5" r="0.5" transform="rotate(-180 118.5 66.5)" fill="#F5F5F5"/>
<circle cx="47.5" cy="63.5" r="0.5" transform="rotate(-180 47.5 63.5)" fill="#F5F5F5"/>
<circle cx="48" cy="76" r="1" fill="#F5F5F5"/>
<circle cx="30" cy="37" r="1" fill="#F5F5F5"/>
<circle cx="12" cy="38" r="1" fill="#F5F5F5"/>
<circle cx="27.5" cy="23.5" r="0.5" transform="rotate(-180 27.5 23.5)" fill="#F5F5F5"/>
<circle cx="6.5" cy="50.5" r="0.5" transform="rotate(-180 6.5 50.5)" fill="#F5F5F5"/>
<circle cx="21.5" cy="93.5" r="0.5" transform="rotate(-180 21.5 93.5)" fill="#F5F5F5"/>
<circle cx="42.5" cy="85.5" r="0.5" transform="rotate(-180 42.5 85.5)" fill="#F5F5F5"/>
<circle cx="56.5" cy="38.5" r="0.5" transform="rotate(-180 56.5 38.5)" fill="#F5F5F5"/>
<circle cx="96.5" cy="43.5" r="0.5" transform="rotate(-180 96.5 43.5)" fill="#F5F5F5"/>
<circle cx="47.5" cy="63.5" r="0.5" transform="rotate(-180 47.5 63.5)" fill="#F5F5F5"/>
<circle cx="48" cy="76" r="1" fill="#F5F5F5"/>
<circle cx="30" cy="37" r="1" fill="#F5F5F5"/>
<circle cx="12" cy="38" r="1" fill="#F5F5F5"/>
<circle cx="27.5" cy="23.5" r="0.5" transform="rotate(-180 27.5 23.5)" fill="#F5F5F5"/>
<circle cx="6.5" cy="50.5" r="0.5" transform="rotate(-180 6.5 50.5)" fill="#F5F5F5"/>
<circle cx="21.5" cy="93.5" r="0.5" transform="rotate(-180 21.5 93.5)" fill="#F5F5F5"/>
<circle cx="42.5" cy="85.5" r="0.5" transform="rotate(-180 42.5 85.5)" fill="#F5F5F5"/>
<circle cx="56.5" cy="38.5" r="0.5" transform="rotate(-180 56.5 38.5)" fill="#F5F5F5"/>
<circle cx="96.5" cy="43.5" r="0.5" transform="rotate(-180 96.5 43.5)" fill="#F5F5F5"/>
<circle cx="47.5" cy="63.5" r="0.5" transform="rotate(-180 47.5 63.5)" fill="#F5F5F5"/>
<circle cx="48" cy="76" r="1" fill="#F5F5F5"/>
<circle cx="30" cy="37" r="1" fill="#F5F5F5"/>
<circle cx="12" cy="38" r="1" fill="#F5F5F5"/>
<circle cx="27.5" cy="23.5" r="0.5" transform="rotate(-180 27.5 23.5)" fill="#F5F5F5"/>
<circle cx="6.5" cy="50.5" r="0.5" transform="rotate(-180 6.5 50.5)" fill="#F5F5F5"/>
<circle cx="21.5" cy="93.5" r="0.5" transform="rotate(-180 21.5 93.5)" fill="#F5F5F5"/>
<circle cx="42.5" cy="85.5" r="0.5" transform="rotate(-180 42.5 85.5)" fill="#F5F5F5"/>
<circle cx="56.5" cy="38.5" r="0.5" transform="rotate(-180 56.5 38.5)" fill="#F5F5F5"/>
<circle cx="96.5" cy="43.5" r="0.5" transform="rotate(-180 96.5 43.5)" fill="#F5F5F5"/>
<circle cx="47.5" cy="63.5" r="0.5" transform="rotate(-180 47.5 63.5)" fill="#F5F5F5"/>
<circle cx="48" cy="76" r="1" fill="#F5F5F5"/>
<circle cx="30" cy="37" r="1" fill="#F5F5F5"/>
<circle cx="12" cy="38" r="1" fill="#F5F5F5"/>
<circle cx="27.5" cy="23.5" r="0.5" transform="rotate(-180 27.5 23.5)" fill="#F5F5F5"/>
<circle cx="6.5" cy="50.5" r="0.5" transform="rotate(-180 6.5 50.5)" fill="#F5F5F5"/>
<circle cx="21.5" cy="93.5" r="0.5" transform="rotate(-180 21.5 93.5)" fill="#F5F5F5"/>
<circle cx="42.5" cy="85.5" r="0.5" transform="rotate(-180 42.5 85.5)" fill="#F5F5F5"/>
<circle cx="56.5" cy="38.5" r="0.5" transform="rotate(-180 56.5 38.5)" fill="#F5F5F5"/>
<circle cx="96.5" cy="43.5" r="0.5" transform="rotate(-180 96.5 43.5)" fill="#F5F5F5"/>
<circle cx="47.5" cy="63.5" r="0.5" transform="rotate(-180 47.5 63.5)" fill="#F5F5F5"/>
<circle cx="161" cy="76" r="1" fill="#F5F5F5"/>
<circle cx="143" cy="37" r="1" fill="#F5F5F5"/>
<circle cx="125" cy="38" r="1" fill="#F5F5F5"/>
<circle cx="226.5" cy="19.5" r="0.5" transform="rotate(-180 226.5 19.5)" fill="#F5F5F5"/>
<circle cx="140.5" cy="23.5" r="0.5" transform="rotate(-180 140.5 23.5)" fill="#F5F5F5"/>
<circle cx="226.5" cy="92.5" r="0.5" transform="rotate(-180 226.5 92.5)" fill="#F5F5F5"/>
<circle cx="119.5" cy="50.5" r="0.5" transform="rotate(-180 119.5 50.5)" fill="#F5F5F5"/>
<circle cx="134.5" cy="93.5" r="0.5" transform="rotate(-180 134.5 93.5)" fill="#F5F5F5"/>
<circle cx="155.5" cy="85.5" r="0.5" transform="rotate(-180 155.5 85.5)" fill="#F5F5F5"/>
<circle cx="169.5" cy="38.5" r="0.5" transform="rotate(-180 169.5 38.5)" fill="#F5F5F5"/>
<circle cx="209.5" cy="43.5" r="0.5" transform="rotate(-180 209.5 43.5)" fill="#F5F5F5"/>
<circle cx="231.5" cy="66.5" r="0.5" transform="rotate(-180 231.5 66.5)" fill="#F5F5F5"/>
<circle cx="160.5" cy="63.5" r="0.5" transform="rotate(-180 160.5 63.5)" fill="#F5F5F5"/>
<circle cx="161" cy="76" r="1" fill="#F5F5F5"/>
<circle cx="143" cy="37" r="1" fill="#F5F5F5"/>
<circle cx="125" cy="38" r="1" fill="#F5F5F5"/>
<circle cx="140.5" cy="23.5" r="0.5" transform="rotate(-180 140.5 23.5)" fill="#F5F5F5"/>
<circle cx="119.5" cy="50.5" r="0.5" transform="rotate(-180 119.5 50.5)" fill="#F5F5F5"/>
<circle cx="134.5" cy="93.5" r="0.5" transform="rotate(-180 134.5 93.5)" fill="#F5F5F5"/>
<circle cx="155.5" cy="85.5" r="0.5" transform="rotate(-180 155.5 85.5)" fill="#F5F5F5"/>
<circle cx="169.5" cy="38.5" r="0.5" transform="rotate(-180 169.5 38.5)" fill="#F5F5F5"/>
<circle cx="209.5" cy="43.5" r="0.5" transform="rotate(-180 209.5 43.5)" fill="#F5F5F5"/>
<circle cx="160.5" cy="63.5" r="0.5" transform="rotate(-180 160.5 63.5)" fill="#F5F5F5"/>
<circle cx="161" cy="76" r="1" fill="#F5F5F5"/>
<circle cx="143" cy="37" r="1" fill="#F5F5F5"/>
<circle cx="125" cy="38" r="1" fill="#F5F5F5"/>
<circle cx="140.5" cy="23.5" r="0.5" transform="rotate(-180 140.5 23.5)" fill="#F5F5F5"/>
<circle cx="119.5" cy="50.5" r="0.5" transform="rotate(-180 119.5 50.5)" fill="#F5F5F5"/>
<circle cx="134.5" cy="93.5" r="0.5" transform="rotate(-180 134.5 93.5)" fill="#F5F5F5"/>
<circle cx="155.5" cy="85.5" r="0.5" transform="rotate(-180 155.5 85.5)" fill="#F5F5F5"/>
<circle cx="169.5" cy="38.5" r="0.5" transform="rotate(-180 169.5 38.5)" fill="#F5F5F5"/>
<circle cx="209.5" cy="43.5" r="0.5" transform="rotate(-180 209.5 43.5)" fill="#F5F5F5"/>
<circle cx="160.5" cy="63.5" r="0.5" transform="rotate(-180 160.5 63.5)" fill="#F5F5F5"/>
<circle cx="161" cy="76" r="1" fill="#F5F5F5"/>
<circle cx="143" cy="37" r="1" fill="#F5F5F5"/>
<circle cx="125" cy="38" r="1" fill="#F5F5F5"/>
<circle cx="140.5" cy="23.5" r="0.5" transform="rotate(-180 140.5 23.5)" fill="#F5F5F5"/>
<circle cx="119.5" cy="50.5" r="0.5" transform="rotate(-180 119.5 50.5)" fill="#F5F5F5"/>
<circle cx="134.5" cy="93.5" r="0.5" transform="rotate(-180 134.5 93.5)" fill="#F5F5F5"/>
<circle cx="155.5" cy="85.5" r="0.5" transform="rotate(-180 155.5 85.5)" fill="#F5F5F5"/>
<circle cx="169.5" cy="38.5" r="0.5" transform="rotate(-180 169.5 38.5)" fill="#F5F5F5"/>
<circle cx="209.5" cy="43.5" r="0.5" transform="rotate(-180 209.5 43.5)" fill="#F5F5F5"/>
<circle cx="160.5" cy="63.5" r="0.5" transform="rotate(-180 160.5 63.5)" fill="#F5F5F5"/>
<circle cx="161" cy="76" r="1" fill="#F5F5F5"/>
<circle cx="143" cy="37" r="1" fill="#F5F5F5"/>
<circle cx="125" cy="38" r="1" fill="#F5F5F5"/>
<circle cx="140.5" cy="23.5" r="0.5" transform="rotate(-180 140.5 23.5)" fill="#F5F5F5"/>
<circle cx="119.5" cy="50.5" r="0.5" transform="rotate(-180 119.5 50.5)" fill="#F5F5F5"/>
<circle cx="134.5" cy="93.5" r="0.5" transform="rotate(-180 134.5 93.5)" fill="#F5F5F5"/>
<circle cx="155.5" cy="85.5" r="0.5" transform="rotate(-180 155.5 85.5)" fill="#F5F5F5"/>
<circle cx="169.5" cy="38.5" r="0.5" transform="rotate(-180 169.5 38.5)" fill="#F5F5F5"/>
<circle cx="209.5" cy="43.5" r="0.5" transform="rotate(-180 209.5 43.5)" fill="#F5F5F5"/>
<circle cx="160.5" cy="63.5" r="0.5" transform="rotate(-180 160.5 63.5)" fill="#F5F5F5"/>
<circle cx="387" cy="76" r="1" fill="#F5F5F5"/>
<circle cx="369" cy="37" r="1" fill="#F5F5F5"/>
<circle cx="351" cy="38" r="1" fill="#F5F5F5"/>
<circle cx="452.5" cy="19.5" r="0.5" transform="rotate(-180 452.5 19.5)" fill="#F5F5F5"/>
<circle cx="366.5" cy="23.5" r="0.5" transform="rotate(-180 366.5 23.5)" fill="#F5F5F5"/>
<circle cx="452.5" cy="92.5" r="0.5" transform="rotate(-180 452.5 92.5)" fill="#F5F5F5"/>
<circle cx="345.5" cy="50.5" r="0.5" transform="rotate(-180 345.5 50.5)" fill="#F5F5F5"/>
<circle cx="360.5" cy="93.5" r="0.5" transform="rotate(-180 360.5 93.5)" fill="#F5F5F5"/>
<circle cx="381.5" cy="85.5" r="0.5" transform="rotate(-180 381.5 85.5)" fill="#F5F5F5"/>
<circle cx="395.5" cy="38.5" r="0.5" transform="rotate(-180 395.5 38.5)" fill="#F5F5F5"/>
<circle cx="435.5" cy="43.5" r="0.5" transform="rotate(-180 435.5 43.5)" fill="#F5F5F5"/>
<circle cx="457.5" cy="66.5" r="0.5" transform="rotate(-180 457.5 66.5)" fill="#F5F5F5"/>
<circle cx="386.5" cy="63.5" r="0.5" transform="rotate(-180 386.5 63.5)" fill="#F5F5F5"/>
<circle cx="387" cy="76" r="1" fill="#F5F5F5"/>
<circle cx="369" cy="37" r="1" fill="#F5F5F5"/>
<circle cx="351" cy="38" r="1" fill="#F5F5F5"/>
<circle cx="366.5" cy="23.5" r="0.5" transform="rotate(-180 366.5 23.5)" fill="#F5F5F5"/>
<circle cx="345.5" cy="50.5" r="0.5" transform="rotate(-180 345.5 50.5)" fill="#F5F5F5"/>
<circle cx="360.5" cy="93.5" r="0.5" transform="rotate(-180 360.5 93.5)" fill="#F5F5F5"/>
<circle cx="381.5" cy="85.5" r="0.5" transform="rotate(-180 381.5 85.5)" fill="#F5F5F5"/>
<circle cx="395.5" cy="38.5" r="0.5" transform="rotate(-180 395.5 38.5)" fill="#F5F5F5"/>
<circle cx="435.5" cy="43.5" r="0.5" transform="rotate(-180 435.5 43.5)" fill="#F5F5F5"/>
<circle cx="386.5" cy="63.5" r="0.5" transform="rotate(-180 386.5 63.5)" fill="#F5F5F5"/>
<circle cx="387" cy="76" r="1" fill="#F5F5F5"/>
<circle cx="369" cy="37" r="1" fill="#F5F5F5"/>
<circle cx="351" cy="38" r="1" fill="#F5F5F5"/>
<circle cx="366.5" cy="23.5" r="0.5" transform="rotate(-180 366.5 23.5)" fill="#F5F5F5"/>
<circle cx="345.5" cy="50.5" r="0.5" transform="rotate(-180 345.5 50.5)" fill="#F5F5F5"/>
<circle cx="360.5" cy="93.5" r="0.5" transform="rotate(-180 360.5 93.5)" fill="#F5F5F5"/>
<circle cx="381.5" cy="85.5" r="0.5" transform="rotate(-180 381.5 85.5)" fill="#F5F5F5"/>
<circle cx="395.5" cy="38.5" r="0.5" transform="rotate(-180 395.5 38.5)" fill="#F5F5F5"/>
<circle cx="435.5" cy="43.5" r="0.5" transform="rotate(-180 435.5 43.5)" fill="#F5F5F5"/>
<circle cx="386.5" cy="63.5" r="0.5" transform="rotate(-180 386.5 63.5)" fill="#F5F5F5"/>
<circle cx="387" cy="76" r="1" fill="#F5F5F5"/>
<circle cx="369" cy="37" r="1" fill="#F5F5F5"/>
<circle cx="351" cy="38" r="1" fill="#F5F5F5"/>
<circle cx="366.5" cy="23.5" r="0.5" transform="rotate(-180 366.5 23.5)" fill="#F5F5F5"/>
<circle cx="345.5" cy="50.5" r="0.5" transform="rotate(-180 345.5 50.5)" fill="#F5F5F5"/>
<circle cx="360.5" cy="93.5" r="0.5" transform="rotate(-180 360.5 93.5)" fill="#F5F5F5"/>
<circle cx="381.5" cy="85.5" r="0.5" transform="rotate(-180 381.5 85.5)" fill="#F5F5F5"/>
<circle cx="395.5" cy="38.5" r="0.5" transform="rotate(-180 395.5 38.5)" fill="#F5F5F5"/>
<circle cx="435.5" cy="43.5" r="0.5" transform="rotate(-180 435.5 43.5)" fill="#F5F5F5"/>
<circle cx="386.5" cy="63.5" r="0.5" transform="rotate(-180 386.5 63.5)" fill="#F5F5F5"/>
<circle cx="387" cy="76" r="1" fill="#F5F5F5"/>
<circle cx="369" cy="37" r="1" fill="#F5F5F5"/>
<circle cx="351" cy="38" r="1" fill="#F5F5F5"/>
<circle cx="366.5" cy="23.5" r="0.5" transform="rotate(-180 366.5 23.5)" fill="#F5F5F5"/>
<circle cx="345.5" cy="50.5" r="0.5" transform="rotate(-180 345.5 50.5)" fill="#F5F5F5"/>
<circle cx="360.5" cy="93.5" r="0.5" transform="rotate(-180 360.5 93.5)" fill="#F5F5F5"/>
<circle cx="381.5" cy="85.5" r="0.5" transform="rotate(-180 381.5 85.5)" fill="#F5F5F5"/>
<circle cx="395.5" cy="38.5" r="0.5" transform="rotate(-180 395.5 38.5)" fill="#F5F5F5"/>
<circle cx="435.5" cy="43.5" r="0.5" transform="rotate(-180 435.5 43.5)" fill="#F5F5F5"/>
<circle cx="386.5" cy="63.5" r="0.5" transform="rotate(-180 386.5 63.5)" fill="#F5F5F5"/>
<circle cx="82" cy="142" r="1" fill="#F5F5F5"/>
<circle cx="64" cy="103" r="1" fill="#F5F5F5"/>
<circle cx="46" cy="104" r="1" fill="#F5F5F5"/>
<circle cx="147.5" cy="85.5" r="0.5" transform="rotate(-180 147.5 85.5)" fill="#F5F5F5"/>
<circle cx="61.5" cy="89.5" r="0.5" transform="rotate(-180 61.5 89.5)" fill="#F5F5F5"/>
<circle cx="147.5" cy="158.5" r="0.5" transform="rotate(-180 147.5 158.5)" fill="#F5F5F5"/>
<circle cx="40.5" cy="116.5" r="0.5" transform="rotate(-180 40.5 116.5)" fill="#F5F5F5"/>
<circle cx="55.5" cy="159.5" r="0.5" transform="rotate(-180 55.5 159.5)" fill="#F5F5F5"/>
<circle cx="76.5" cy="151.5" r="0.5" transform="rotate(-180 76.5 151.5)" fill="#F5F5F5"/>
<circle cx="90.5" cy="104.5" r="0.5" transform="rotate(-180 90.5 104.5)" fill="#F5F5F5"/>
<circle cx="130.5" cy="109.5" r="0.5" transform="rotate(-180 130.5 109.5)" fill="#F5F5F5"/>
<circle cx="152.5" cy="132.5" r="0.5" transform="rotate(-180 152.5 132.5)" fill="#F5F5F5"/>
<circle cx="81.5" cy="129.5" r="0.5" transform="rotate(-180 81.5 129.5)" fill="#F5F5F5"/>
<circle cx="82" cy="142" r="1" fill="#F5F5F5"/>
<circle cx="64" cy="103" r="1" fill="#F5F5F5"/>
<circle cx="46" cy="104" r="1" fill="#F5F5F5"/>
<circle cx="61.5" cy="89.5" r="0.5" transform="rotate(-180 61.5 89.5)" fill="#F5F5F5"/>
<circle cx="40.5" cy="116.5" r="0.5" transform="rotate(-180 40.5 116.5)" fill="#F5F5F5"/>
<circle cx="55.5" cy="159.5" r="0.5" transform="rotate(-180 55.5 159.5)" fill="#F5F5F5"/>
<circle cx="76.5" cy="151.5" r="0.5" transform="rotate(-180 76.5 151.5)" fill="#F5F5F5"/>
<circle cx="90.5" cy="104.5" r="0.5" transform="rotate(-180 90.5 104.5)" fill="#F5F5F5"/>
<circle cx="130.5" cy="109.5" r="0.5" transform="rotate(-180 130.5 109.5)" fill="#F5F5F5"/>
<circle cx="81.5" cy="129.5" r="0.5" transform="rotate(-180 81.5 129.5)" fill="#F5F5F5"/>
<circle cx="82" cy="142" r="1" fill="#F5F5F5"/>
<circle cx="64" cy="103" r="1" fill="#F5F5F5"/>
<circle cx="46" cy="104" r="1" fill="#F5F5F5"/>
<circle cx="61.5" cy="89.5" r="0.5" transform="rotate(-180 61.5 89.5)" fill="#F5F5F5"/>
<circle cx="40.5" cy="116.5" r="0.5" transform="rotate(-180 40.5 116.5)" fill="#F5F5F5"/>
<circle cx="55.5" cy="159.5" r="0.5" transform="rotate(-180 55.5 159.5)" fill="#F5F5F5"/>
<circle cx="76.5" cy="151.5" r="0.5" transform="rotate(-180 76.5 151.5)" fill="#F5F5F5"/>
<circle cx="90.5" cy="104.5" r="0.5" transform="rotate(-180 90.5 104.5)" fill="#F5F5F5"/>
<circle cx="130.5" cy="109.5" r="0.5" transform="rotate(-180 130.5 109.5)" fill="#F5F5F5"/>
<circle cx="81.5" cy="129.5" r="0.5" transform="rotate(-180 81.5 129.5)" fill="#F5F5F5"/>
<circle cx="82" cy="142" r="1" fill="#F5F5F5"/>
<circle cx="64" cy="103" r="1" fill="#F5F5F5"/>
<circle cx="46" cy="104" r="1" fill="#F5F5F5"/>
<circle cx="61.5" cy="89.5" r="0.5" transform="rotate(-180 61.5 89.5)" fill="#F5F5F5"/>
<circle cx="40.5" cy="116.5" r="0.5" transform="rotate(-180 40.5 116.5)" fill="#F5F5F5"/>
<circle cx="55.5" cy="159.5" r="0.5" transform="rotate(-180 55.5 159.5)" fill="#F5F5F5"/>
<circle cx="76.5" cy="151.5" r="0.5" transform="rotate(-180 76.5 151.5)" fill="#F5F5F5"/>
<circle cx="90.5" cy="104.5" r="0.5" transform="rotate(-180 90.5 104.5)" fill="#F5F5F5"/>
<circle cx="130.5" cy="109.5" r="0.5" transform="rotate(-180 130.5 109.5)" fill="#F5F5F5"/>
<circle cx="81.5" cy="129.5" r="0.5" transform="rotate(-180 81.5 129.5)" fill="#F5F5F5"/>
<circle cx="82" cy="142" r="1" fill="#F5F5F5"/>
<circle cx="64" cy="103" r="1" fill="#F5F5F5"/>
<circle cx="46" cy="104" r="1" fill="#F5F5F5"/>
<circle cx="61.5" cy="89.5" r="0.5" transform="rotate(-180 61.5 89.5)" fill="#F5F5F5"/>
<circle cx="40.5" cy="116.5" r="0.5" transform="rotate(-180 40.5 116.5)" fill="#F5F5F5"/>
<circle cx="55.5" cy="159.5" r="0.5" transform="rotate(-180 55.5 159.5)" fill="#F5F5F5"/>
<circle cx="76.5" cy="151.5" r="0.5" transform="rotate(-180 76.5 151.5)" fill="#F5F5F5"/>
<circle cx="90.5" cy="104.5" r="0.5" transform="rotate(-180 90.5 104.5)" fill="#F5F5F5"/>
<circle cx="130.5" cy="109.5" r="0.5" transform="rotate(-180 130.5 109.5)" fill="#F5F5F5"/>
<circle cx="81.5" cy="129.5" r="0.5" transform="rotate(-180 81.5 129.5)" fill="#F5F5F5"/>
<circle cx="217" cy="128" r="1" fill="#F5F5F5"/>
<circle cx="199" cy="89" r="1" fill="#F5F5F5"/>
<circle cx="181" cy="90" r="1" fill="#F5F5F5"/>
<circle cx="282.5" cy="71.5" r="0.5" transform="rotate(-180 282.5 71.5)" fill="#F5F5F5"/>
<circle cx="196.5" cy="75.5" r="0.5" transform="rotate(-180 196.5 75.5)" fill="#F5F5F5"/>
<circle cx="282.5" cy="144.5" r="0.5" transform="rotate(-180 282.5 144.5)" fill="#F5F5F5"/>
<circle cx="175.5" cy="102.5" r="0.5" transform="rotate(-180 175.5 102.5)" fill="#F5F5F5"/>
<circle cx="190.5" cy="145.5" r="0.5" transform="rotate(-180 190.5 145.5)" fill="#F5F5F5"/>
<circle cx="211.5" cy="137.5" r="0.5" transform="rotate(-180 211.5 137.5)" fill="#F5F5F5"/>
<circle cx="225.5" cy="90.5" r="0.5" transform="rotate(-180 225.5 90.5)" fill="#F5F5F5"/>
<circle cx="265.5" cy="95.5" r="0.5" transform="rotate(-180 265.5 95.5)" fill="#F5F5F5"/>
<circle cx="287.5" cy="118.5" r="0.5" transform="rotate(-180 287.5 118.5)" fill="#F5F5F5"/>
<circle cx="216.5" cy="115.5" r="0.5" transform="rotate(-180 216.5 115.5)" fill="#F5F5F5"/>
<circle cx="217" cy="128" r="1" fill="#F5F5F5"/>
<circle cx="199" cy="89" r="1" fill="#F5F5F5"/>
<circle cx="181" cy="90" r="1" fill="#F5F5F5"/>
<circle cx="196.5" cy="75.5" r="0.5" transform="rotate(-180 196.5 75.5)" fill="#F5F5F5"/>
<circle cx="175.5" cy="102.5" r="0.5" transform="rotate(-180 175.5 102.5)" fill="#F5F5F5"/>
<circle cx="190.5" cy="145.5" r="0.5" transform="rotate(-180 190.5 145.5)" fill="#F5F5F5"/>
<circle cx="211.5" cy="137.5" r="0.5" transform="rotate(-180 211.5 137.5)" fill="#F5F5F5"/>
<circle cx="225.5" cy="90.5" r="0.5" transform="rotate(-180 225.5 90.5)" fill="#F5F5F5"/>
<circle cx="265.5" cy="95.5" r="0.5" transform="rotate(-180 265.5 95.5)" fill="#F5F5F5"/>
<circle cx="216.5" cy="115.5" r="0.5" transform="rotate(-180 216.5 115.5)" fill="#F5F5F5"/>
<circle cx="217" cy="128" r="1" fill="#F5F5F5"/>
<circle cx="199" cy="89" r="1" fill="#F5F5F5"/>
<circle cx="181" cy="90" r="1" fill="#F5F5F5"/>
<circle cx="196.5" cy="75.5" r="0.5" transform="rotate(-180 196.5 75.5)" fill="#F5F5F5"/>
<circle cx="175.5" cy="102.5" r="0.5" transform="rotate(-180 175.5 102.5)" fill="#F5F5F5"/>
<circle cx="190.5" cy="145.5" r="0.5" transform="rotate(-180 190.5 145.5)" fill="#F5F5F5"/>
<circle cx="211.5" cy="137.5" r="0.5" transform="rotate(-180 211.5 137.5)" fill="#F5F5F5"/>
<circle cx="225.5" cy="90.5" r="0.5" transform="rotate(-180 225.5 90.5)" fill="#F5F5F5"/>
<circle cx="265.5" cy="95.5" r="0.5" transform="rotate(-180 265.5 95.5)" fill="#F5F5F5"/>
<circle cx="216.5" cy="115.5" r="0.5" transform="rotate(-180 216.5 115.5)" fill="#F5F5F5"/>
<circle cx="217" cy="128" r="1" fill="#F5F5F5"/>
<circle cx="199" cy="89" r="1" fill="#F5F5F5"/>
<circle cx="181" cy="90" r="1" fill="#F5F5F5"/>
<circle cx="196.5" cy="75.5" r="0.5" transform="rotate(-180 196.5 75.5)" fill="#F5F5F5"/>
<circle cx="175.5" cy="102.5" r="0.5" transform="rotate(-180 175.5 102.5)" fill="#F5F5F5"/>
<circle cx="190.5" cy="145.5" r="0.5" transform="rotate(-180 190.5 145.5)" fill="#F5F5F5"/>
<circle cx="211.5" cy="137.5" r="0.5" transform="rotate(-180 211.5 137.5)" fill="#F5F5F5"/>
<circle cx="225.5" cy="90.5" r="0.5" transform="rotate(-180 225.5 90.5)" fill="#F5F5F5"/>
<circle cx="265.5" cy="95.5" r="0.5" transform="rotate(-180 265.5 95.5)" fill="#F5F5F5"/>
<circle cx="216.5" cy="115.5" r="0.5" transform="rotate(-180 216.5 115.5)" fill="#F5F5F5"/>
<circle cx="217" cy="128" r="1" fill="#F5F5F5"/>
<circle cx="199" cy="89" r="1" fill="#F5F5F5"/>
<circle cx="181" cy="90" r="1" fill="#F5F5F5"/>
<circle cx="196.5" cy="75.5" r="0.5" transform="rotate(-180 196.5 75.5)" fill="#F5F5F5"/>
<circle cx="175.5" cy="102.5" r="0.5" transform="rotate(-180 175.5 102.5)" fill="#F5F5F5"/>
<circle cx="190.5" cy="145.5" r="0.5" transform="rotate(-180 190.5 145.5)" fill="#F5F5F5"/>
<circle cx="211.5" cy="137.5" r="0.5" transform="rotate(-180 211.5 137.5)" fill="#F5F5F5"/>
<circle cx="225.5" cy="90.5" r="0.5" transform="rotate(-180 225.5 90.5)" fill="#F5F5F5"/>
<circle cx="265.5" cy="95.5" r="0.5" transform="rotate(-180 265.5 95.5)" fill="#F5F5F5"/>
<circle cx="216.5" cy="115.5" r="0.5" transform="rotate(-180 216.5 115.5)" fill="#F5F5F5"/>
<circle cx="331" cy="142" r="1" fill="#F5F5F5"/>
<circle cx="313" cy="103" r="1" fill="#F5F5F5"/>
<circle cx="295" cy="104" r="1" fill="#F5F5F5"/>
<circle cx="396.5" cy="85.5" r="0.5" transform="rotate(-180 396.5 85.5)" fill="#F5F5F5"/>
<circle cx="310.5" cy="89.5" r="0.5" transform="rotate(-180 310.5 89.5)" fill="#F5F5F5"/>
<circle cx="396.5" cy="158.5" r="0.5" transform="rotate(-180 396.5 158.5)" fill="#F5F5F5"/>
<circle cx="289.5" cy="116.5" r="0.5" transform="rotate(-180 289.5 116.5)" fill="#F5F5F5"/>
<circle cx="304.5" cy="159.5" r="0.5" transform="rotate(-180 304.5 159.5)" fill="#F5F5F5"/>
<circle cx="325.5" cy="151.5" r="0.5" transform="rotate(-180 325.5 151.5)" fill="#F5F5F5"/>
<circle cx="339.5" cy="104.5" r="0.5" transform="rotate(-180 339.5 104.5)" fill="#F5F5F5"/>
<circle cx="379.5" cy="109.5" r="0.5" transform="rotate(-180 379.5 109.5)" fill="#F5F5F5"/>
<circle cx="401.5" cy="132.5" r="0.5" transform="rotate(-180 401.5 132.5)" fill="#F5F5F5"/>
<circle cx="330.5" cy="129.5" r="0.5" transform="rotate(-180 330.5 129.5)" fill="#F5F5F5"/>
<circle cx="331" cy="142" r="1" fill="#F5F5F5"/>
<circle cx="313" cy="103" r="1" fill="#F5F5F5"/>
<circle cx="295" cy="104" r="1" fill="#F5F5F5"/>
<circle cx="310.5" cy="89.5" r="0.5" transform="rotate(-180 310.5 89.5)" fill="#F5F5F5"/>
<circle cx="289.5" cy="116.5" r="0.5" transform="rotate(-180 289.5 116.5)" fill="#F5F5F5"/>
<circle cx="304.5" cy="159.5" r="0.5" transform="rotate(-180 304.5 159.5)" fill="#F5F5F5"/>
<circle cx="325.5" cy="151.5" r="0.5" transform="rotate(-180 325.5 151.5)" fill="#F5F5F5"/>
<circle cx="339.5" cy="104.5" r="0.5" transform="rotate(-180 339.5 104.5)" fill="#F5F5F5"/>
<circle cx="379.5" cy="109.5" r="0.5" transform="rotate(-180 379.5 109.5)" fill="#F5F5F5"/>
<circle cx="330.5" cy="129.5" r="0.5" transform="rotate(-180 330.5 129.5)" fill="#F5F5F5"/>
<circle cx="331" cy="142" r="1" fill="#F5F5F5"/>
<circle cx="313" cy="103" r="1" fill="#F5F5F5"/>
<circle cx="295" cy="104" r="1" fill="#F5F5F5"/>
<circle cx="310.5" cy="89.5" r="0.5" transform="rotate(-180 310.5 89.5)" fill="#F5F5F5"/>
<circle cx="289.5" cy="116.5" r="0.5" transform="rotate(-180 289.5 116.5)" fill="#F5F5F5"/>
<circle cx="304.5" cy="159.5" r="0.5" transform="rotate(-180 304.5 159.5)" fill="#F5F5F5"/>
<circle cx="325.5" cy="151.5" r="0.5" transform="rotate(-180 325.5 151.5)" fill="#F5F5F5"/>
<circle cx="339.5" cy="104.5" r="0.5" transform="rotate(-180 339.5 104.5)" fill="#F5F5F5"/>
<circle cx="379.5" cy="109.5" r="0.5" transform="rotate(-180 379.5 109.5)" fill="#F5F5F5"/>
<circle cx="330.5" cy="129.5" r="0.5" transform="rotate(-180 330.5 129.5)" fill="#F5F5F5"/>
<circle cx="331" cy="142" r="1" fill="#F5F5F5"/>
<circle cx="313" cy="103" r="1" fill="#F5F5F5"/>
<circle cx="295" cy="104" r="1" fill="#F5F5F5"/>
<circle cx="310.5" cy="89.5" r="0.5" transform="rotate(-180 310.5 89.5)" fill="#F5F5F5"/>
<circle cx="289.5" cy="116.5" r="0.5" transform="rotate(-180 289.5 116.5)" fill="#F5F5F5"/>
<circle cx="304.5" cy="159.5" r="0.5" transform="rotate(-180 304.5 159.5)" fill="#F5F5F5"/>
<circle cx="325.5" cy="151.5" r="0.5" transform="rotate(-180 325.5 151.5)" fill="#F5F5F5"/>
<circle cx="339.5" cy="104.5" r="0.5" transform="rotate(-180 339.5 104.5)" fill="#F5F5F5"/>
<circle cx="379.5" cy="109.5" r="0.5" transform="rotate(-180 379.5 109.5)" fill="#F5F5F5"/>
<circle cx="330.5" cy="129.5" r="0.5" transform="rotate(-180 330.5 129.5)" fill="#F5F5F5"/>
<circle cx="331" cy="142" r="1" fill="#F5F5F5"/>
<circle cx="313" cy="103" r="1" fill="#F5F5F5"/>
<circle cx="295" cy="104" r="1" fill="#F5F5F5"/>
<circle cx="310.5" cy="89.5" r="0.5" transform="rotate(-180 310.5 89.5)" fill="#F5F5F5"/>
<circle cx="289.5" cy="116.5" r="0.5" transform="rotate(-180 289.5 116.5)" fill="#F5F5F5"/>
<circle cx="304.5" cy="159.5" r="0.5" transform="rotate(-180 304.5 159.5)" fill="#F5F5F5"/>
<circle cx="325.5" cy="151.5" r="0.5" transform="rotate(-180 325.5 151.5)" fill="#F5F5F5"/>
<circle cx="339.5" cy="104.5" r="0.5" transform="rotate(-180 339.5 104.5)" fill="#F5F5F5"/>
<circle cx="379.5" cy="109.5" r="0.5" transform="rotate(-180 379.5 109.5)" fill="#F5F5F5"/>
<circle cx="330.5" cy="129.5" r="0.5" transform="rotate(-180 330.5 129.5)" fill="#F5F5F5"/>
<circle cx="267" cy="76" r="1" fill="#F5F5F5"/>
<circle cx="249" cy="37" r="1" fill="#F5F5F5"/>
<circle cx="231" cy="38" r="1" fill="#F5F5F5"/>
<circle cx="332.5" cy="19.5" r="0.5" transform="rotate(-180 332.5 19.5)" fill="#F5F5F5"/>
<circle cx="246.5" cy="23.5" r="0.5" transform="rotate(-180 246.5 23.5)" fill="#F5F5F5"/>
<circle cx="332.5" cy="92.5" r="0.5" transform="rotate(-180 332.5 92.5)" fill="#F5F5F5"/>
<circle cx="225.5" cy="50.5" r="0.5" transform="rotate(-180 225.5 50.5)" fill="#F5F5F5"/>
<circle cx="240.5" cy="93.5" r="0.5" transform="rotate(-180 240.5 93.5)" fill="#F5F5F5"/>
<circle cx="261.5" cy="85.5" r="0.5" transform="rotate(-180 261.5 85.5)" fill="#F5F5F5"/>
<circle cx="275.5" cy="38.5" r="0.5" transform="rotate(-180 275.5 38.5)" fill="#F5F5F5"/>
<circle cx="315.5" cy="43.5" r="0.5" transform="rotate(-180 315.5 43.5)" fill="#F5F5F5"/>
<circle cx="337.5" cy="66.5" r="0.5" transform="rotate(-180 337.5 66.5)" fill="#F5F5F5"/>
<circle cx="266.5" cy="63.5" r="0.5" transform="rotate(-180 266.5 63.5)" fill="#F5F5F5"/>
<circle cx="267" cy="76" r="1" fill="#F5F5F5"/>
<circle cx="249" cy="37" r="1" fill="#F5F5F5"/>
<circle cx="231" cy="38" r="1" fill="#F5F5F5"/>
<circle cx="246.5" cy="23.5" r="0.5" transform="rotate(-180 246.5 23.5)" fill="#F5F5F5"/>
<circle cx="225.5" cy="50.5" r="0.5" transform="rotate(-180 225.5 50.5)" fill="#F5F5F5"/>
<circle cx="240.5" cy="93.5" r="0.5" transform="rotate(-180 240.5 93.5)" fill="#F5F5F5"/>
<circle cx="261.5" cy="85.5" r="0.5" transform="rotate(-180 261.5 85.5)" fill="#F5F5F5"/>
<circle cx="275.5" cy="38.5" r="0.5" transform="rotate(-180 275.5 38.5)" fill="#F5F5F5"/>
<circle cx="315.5" cy="43.5" r="0.5" transform="rotate(-180 315.5 43.5)" fill="#F5F5F5"/>
<circle cx="266.5" cy="63.5" r="0.5" transform="rotate(-180 266.5 63.5)" fill="#F5F5F5"/>
<circle cx="267" cy="76" r="1" fill="#F5F5F5"/>
<circle cx="249" cy="37" r="1" fill="#F5F5F5"/>
<circle cx="231" cy="38" r="1" fill="#F5F5F5"/>
<circle cx="246.5" cy="23.5" r="0.5" transform="rotate(-180 246.5 23.5)" fill="#F5F5F5"/>
<circle cx="225.5" cy="50.5" r="0.5" transform="rotate(-180 225.5 50.5)" fill="#F5F5F5"/>
<circle cx="240.5" cy="93.5" r="0.5" transform="rotate(-180 240.5 93.5)" fill="#F5F5F5"/>
<circle cx="261.5" cy="85.5" r="0.5" transform="rotate(-180 261.5 85.5)" fill="#F5F5F5"/>
<circle cx="275.5" cy="38.5" r="0.5" transform="rotate(-180 275.5 38.5)" fill="#F5F5F5"/>
<circle cx="315.5" cy="43.5" r="0.5" transform="rotate(-180 315.5 43.5)" fill="#F5F5F5"/>
<circle cx="266.5" cy="63.5" r="0.5" transform="rotate(-180 266.5 63.5)" fill="#F5F5F5"/>
<circle cx="267" cy="76" r="1" fill="#F5F5F5"/>
<circle cx="249" cy="37" r="1" fill="#F5F5F5"/>
<circle cx="231" cy="38" r="1" fill="#F5F5F5"/>
<circle cx="246.5" cy="23.5" r="0.5" transform="rotate(-180 246.5 23.5)" fill="#F5F5F5"/>
<circle cx="225.5" cy="50.5" r="0.5" transform="rotate(-180 225.5 50.5)" fill="#F5F5F5"/>
<circle cx="240.5" cy="93.5" r="0.5" transform="rotate(-180 240.5 93.5)" fill="#F5F5F5"/>
<circle cx="261.5" cy="85.5" r="0.5" transform="rotate(-180 261.5 85.5)" fill="#F5F5F5"/>
<circle cx="275.5" cy="38.5" r="0.5" transform="rotate(-180 275.5 38.5)" fill="#F5F5F5"/>
<circle cx="315.5" cy="43.5" r="0.5" transform="rotate(-180 315.5 43.5)" fill="#F5F5F5"/>
<circle cx="266.5" cy="63.5" r="0.5" transform="rotate(-180 266.5 63.5)" fill="#F5F5F5"/>
<circle cx="267" cy="76" r="1" fill="#F5F5F5"/>
<circle cx="249" cy="37" r="1" fill="#F5F5F5"/>
<circle cx="231" cy="38" r="1" fill="#F5F5F5"/>
<circle cx="246.5" cy="23.5" r="0.5" transform="rotate(-180 246.5 23.5)" fill="#F5F5F5"/>
<circle cx="225.5" cy="50.5" r="0.5" transform="rotate(-180 225.5 50.5)" fill="#F5F5F5"/>
<circle cx="240.5" cy="93.5" r="0.5" transform="rotate(-180 240.5 93.5)" fill="#F5F5F5"/>
<circle cx="261.5" cy="85.5" r="0.5" transform="rotate(-180 261.5 85.5)" fill="#F5F5F5"/>
<circle cx="275.5" cy="38.5" r="0.5" transform="rotate(-180 275.5 38.5)" fill="#F5F5F5"/>
<circle cx="315.5" cy="43.5" r="0.5" transform="rotate(-180 315.5 43.5)" fill="#F5F5F5"/>
<circle cx="266.5" cy="63.5" r="0.5" transform="rotate(-180 266.5 63.5)" fill="#F5F5F5"/>
<defs>
<linearGradient id="paint0_linear" x1="236.292" y1="3.58734" x2="236.292" y2="364.587" gradientUnits="userSpaceOnUse">
<stop stop-color="#000002"/>
<stop offset="0.9998" stop-color="#37349F"/>
</linearGradient>
</defs>
</svg>
