<svg width="241" height="419" viewBox="0 0 241 419" fill="none" xmlns="http://www.w3.org/2000/svg">
<path d="M109.5 405C102.5 377 76.22 290.37 56 237C31.44 172.16 24 142 24 142L238 129.61C234.46 153.42 206 208.61 182 265C154 330.79 128.88 397.39 109.5 405Z" fill="#FDAA81"/>
<path d="M41 177L81 287C92.67 325 111 400 113 403L41 177Z" fill="#5EC0BE"/>
<path d="M40.35 175.11C47.41 193.59 54.79 212.11 62.19 231C65.88 240.45 69.51 250 73.04 259.49L78.3 273.74L80.89 280.85L82.18 284.4L82.83 286.17C83.03 286.77 83.2 287.37 83.38 287.97C89.13 307.03 94.19 326.11 99.29 345.25L106.86 373.95L110.68 388.27L112.68 395.4C113.02 396.58 113.36 397.76 113.68 398.92C113.86 399.51 114.04 400.08 114.22 400.64C114.31 400.94 114.41 401.19 114.5 401.44C114.59 401.69 114.61 401.75 114.63 401.78C114.64 401.816 114.64 401.854 114.63 401.89L111.07 403.61L93.07 346.48C87.07 327.387 81.1533 308.273 75.32 289.14L57.88 232L40.35 175.11ZM41.65 178.89L60.12 235L78.7 290.86C84.86 309.42 90.96 327.973 97 346.52L115 402.39L111.44 404.11C111.31 403.87 111.18 403.63 111.07 403.39C110.96 403.15 110.94 403.04 110.87 402.86C110.74 402.53 110.62 402.2 110.53 401.91C110.33 401.29 110.13 400.69 109.96 400.09C109.59 398.88 109.25 397.69 108.96 396.49L106.96 389.32L103 375L95.43 346.31C90.34 327.21 85.25 308.05 79.57 289.22C79.39 288.64 79.23 288.05 79.04 287.48L78.41 285.77L77.17 282.34L74.69 275.51L69.81 261.87C66.58 252.79 63.44 243.73 60.37 234.59C54.25 216.29 48.12 197.59 41.65 178.89Z" fill="#5EC0BE"/>
<path d="M128.5 225C190.632 225 241 174.632 241 112.5C241 50.368 190.632 0 128.5 0C66.368 0 16 50.368 16 112.5C16 174.632 66.368 225 128.5 225Z" fill="#E5424A"/>
<path opacity="0.78" d="M117.5 220C173.557 220 219 174.557 219 118.5C219 62.4431 173.557 17 117.5 17C61.4431 17 16 62.4431 16 118.5C16 174.557 61.4431 220 117.5 220Z" fill="#FDAA81"/>
<path d="M32.856 115.016C33.816 114.12 34.872 113.392 36.024 112.832C37.176 112.272 38.528 111.992 40.08 111.992C41.424 111.992 42.616 112.224 43.656 112.688C44.696 113.136 45.56 113.776 46.248 114.608C46.952 115.424 47.48 116.408 47.832 117.56C48.2 118.696 48.384 119.952 48.384 121.328V137H42.456V121.328C42.456 119.824 42.112 118.664 41.424 117.848C40.736 117.016 39.688 116.6 38.28 116.6C37.256 116.6 36.296 116.832 35.4 117.296C34.504 117.76 33.656 118.392 32.856 119.192V137H26.928V101.336H32.856V115.016ZM64.9178 111.992C66.7418 111.992 68.3978 112.288 69.8858 112.88C71.3898 113.472 72.6698 114.312 73.7258 115.4C74.7977 116.488 75.6217 117.816 76.1978 119.384C76.7738 120.952 77.0618 122.704 77.0618 124.64C77.0618 126.592 76.7738 128.352 76.1978 129.92C75.6217 131.488 74.7977 132.824 73.7258 133.928C72.6698 135.032 71.3898 135.88 69.8858 136.472C68.3978 137.064 66.7418 137.36 64.9178 137.36C63.0778 137.36 61.4058 137.064 59.9018 136.472C58.3978 135.88 57.1098 135.032 56.0378 133.928C54.9818 132.824 54.1578 131.488 53.5658 129.92C52.9898 128.352 52.7018 126.592 52.7018 124.64C52.7018 122.704 52.9898 120.952 53.5658 119.384C54.1578 117.816 54.9818 116.488 56.0378 115.4C57.1098 114.312 58.3978 113.472 59.9018 112.88C61.4058 112.288 63.0778 111.992 64.9178 111.992ZM64.9178 132.8C66.9658 132.8 68.4778 132.112 69.4538 130.736C70.4458 129.36 70.9418 127.344 70.9418 124.688C70.9418 122.032 70.4458 120.008 69.4538 118.616C68.4778 117.224 66.9658 116.528 64.9178 116.528C62.8378 116.528 61.2938 117.232 60.2858 118.64C59.2938 120.032 58.7978 122.048 58.7978 124.688C58.7978 127.328 59.2938 129.344 60.2858 130.736C61.2938 132.112 62.8378 132.8 64.9178 132.8ZM87.5123 130.616C88.1843 131.432 88.9123 132.008 89.6963 132.344C90.4963 132.68 91.3603 132.848 92.2883 132.848C93.1843 132.848 93.9923 132.68 94.7123 132.344C95.4323 132.008 96.0403 131.496 96.5363 130.808C97.0483 130.12 97.4403 129.256 97.7123 128.216C97.9843 127.16 98.1203 125.92 98.1203 124.496C98.1203 123.056 98.0003 121.84 97.7603 120.848C97.5363 119.84 97.2083 119.024 96.7763 118.4C96.3443 117.776 95.8163 117.32 95.1923 117.032C94.5843 116.744 93.8883 116.6 93.1043 116.6C91.8723 116.6 90.8243 116.864 89.9603 117.392C89.0963 117.904 88.2803 118.632 87.5123 119.576V130.616ZM87.2003 115.736C88.2083 114.6 89.3523 113.68 90.6323 112.976C91.9123 112.272 93.4163 111.92 95.1443 111.92C96.4883 111.92 97.7123 112.2 98.8163 112.76C99.9363 113.32 100.896 114.136 101.696 115.208C102.512 116.264 103.136 117.576 103.568 119.144C104.016 120.696 104.24 122.48 104.24 124.496C104.24 126.336 103.992 128.04 103.496 129.608C103 131.176 102.288 132.536 101.36 133.688C100.448 134.84 99.3363 135.744 98.0243 136.4C96.7283 137.04 95.2723 137.36 93.6562 137.36C92.2803 137.36 91.1043 137.152 90.1283 136.736C89.1523 136.304 88.2803 135.712 87.5123 134.96V145.04H81.5843V112.376H85.2083C85.9763 112.376 86.4803 112.736 86.7203 113.456L87.2003 115.736Z" fill="white"/>
<path d="M133.706 104.672C133.706 105.408 133.498 106.08 133.082 106.688L115.274 131.84H133.298V137H106.898V134.456C106.898 134.136 106.954 133.832 107.066 133.544C107.178 133.24 107.322 132.96 107.498 132.704L125.354 107.432H108.026V102.296H133.706V104.672ZM147.793 111.992C149.617 111.992 151.273 112.288 152.761 112.88C154.265 113.472 155.545 114.312 156.601 115.4C157.673 116.488 158.497 117.816 159.073 119.384C159.649 120.952 159.937 122.704 159.937 124.64C159.937 126.592 159.649 128.352 159.073 129.92C158.497 131.488 157.673 132.824 156.601 133.928C155.545 135.032 154.265 135.88 152.761 136.472C151.273 137.064 149.617 137.36 147.793 137.36C145.953 137.36 144.281 137.064 142.777 136.472C141.273 135.88 139.985 135.032 138.913 133.928C137.857 132.824 137.033 131.488 136.441 129.92C135.865 128.352 135.577 126.592 135.577 124.64C135.577 122.704 135.865 120.952 136.441 119.384C137.033 117.816 137.857 116.488 138.913 115.4C139.985 114.312 141.273 113.472 142.777 112.88C144.281 112.288 145.953 111.992 147.793 111.992ZM147.793 132.8C149.841 132.8 151.353 132.112 152.329 130.736C153.321 129.36 153.817 127.344 153.817 124.688C153.817 122.032 153.321 120.008 152.329 118.616C151.353 117.224 149.841 116.528 147.793 116.528C145.713 116.528 144.169 117.232 143.161 118.64C142.169 120.032 141.673 122.048 141.673 124.688C141.673 127.328 142.169 129.344 143.161 130.736C144.169 132.112 145.713 132.8 147.793 132.8ZM170.003 115.4C170.499 114.904 171.019 114.448 171.563 114.032C172.123 113.6 172.707 113.24 173.315 112.952C173.939 112.648 174.603 112.416 175.307 112.256C176.011 112.08 176.779 111.992 177.611 111.992C178.955 111.992 180.147 112.224 181.187 112.688C182.227 113.136 183.091 113.776 183.779 114.608C184.483 115.424 185.011 116.408 185.363 117.56C185.731 118.696 185.915 119.952 185.915 121.328V137H179.987V121.328C179.987 119.824 179.643 118.664 178.955 117.848C178.267 117.016 177.219 116.6 175.811 116.6C174.787 116.6 173.827 116.832 172.931 117.296C172.035 117.76 171.187 118.392 170.387 119.192V137H164.459V112.376H168.083C168.851 112.376 169.355 112.736 169.595 113.456L170.003 115.4ZM207.417 121.856C207.417 121.088 207.305 120.368 207.081 119.696C206.873 119.008 206.553 118.408 206.121 117.896C205.689 117.384 205.137 116.984 204.465 116.696C203.809 116.392 203.041 116.24 202.161 116.24C200.449 116.24 199.097 116.728 198.105 117.704C197.129 118.68 196.505 120.064 196.233 121.856H207.417ZM196.113 125.432C196.209 126.696 196.433 127.792 196.785 128.72C197.137 129.632 197.601 130.392 198.177 131C198.753 131.592 199.433 132.04 200.217 132.344C201.017 132.632 201.897 132.776 202.857 132.776C203.817 132.776 204.641 132.664 205.329 132.44C206.033 132.216 206.641 131.968 207.153 131.696C207.681 131.424 208.137 131.176 208.521 130.952C208.921 130.728 209.305 130.616 209.673 130.616C210.169 130.616 210.537 130.8 210.777 131.168L212.481 133.328C211.825 134.096 211.089 134.744 210.273 135.272C209.457 135.784 208.601 136.2 207.705 136.52C206.825 136.824 205.921 137.04 204.993 137.168C204.081 137.296 203.193 137.36 202.329 137.36C200.617 137.36 199.025 137.08 197.553 136.52C196.081 135.944 194.801 135.104 193.713 134C192.625 132.88 191.769 131.504 191.145 129.872C190.521 128.224 190.209 126.32 190.209 124.16C190.209 122.48 190.481 120.904 191.025 119.432C191.569 117.944 192.345 116.656 193.353 115.568C194.377 114.464 195.617 113.592 197.073 112.952C198.545 112.312 200.201 111.992 202.041 111.992C203.593 111.992 205.025 112.24 206.337 112.736C207.649 113.232 208.777 113.96 209.721 114.92C210.665 115.864 211.401 117.032 211.929 118.424C212.473 119.8 212.745 121.376 212.745 123.152C212.745 124.048 212.649 124.656 212.457 124.976C212.265 125.28 211.897 125.432 211.353 125.432H196.113Z" fill="black"/>
<path d="M50 399C57.732 399 64 392.732 64 385C64 377.268 57.732 371 50 371C42.268 371 36 377.268 36 385C36 392.732 42.268 399 50 399Z" fill="#E5424A"/>
<path d="M85 419C92.732 419 99 412.732 99 405C99 397.268 92.732 391 85 391C77.268 391 71 397.268 71 405C71 412.732 77.268 419 85 419Z" fill="#E5424A"/>
<path d="M14 376C21.732 376 28 369.732 28 362C28 354.268 21.732 348 14 348C6.26801 348 0 354.268 0 362C0 369.732 6.26801 376 14 376Z" fill="#E5424A"/>
</svg>
