<svg width="546" height="533" viewBox="0 0 546 533" fill="none" xmlns="http://www.w3.org/2000/svg">
<path d="M544 266.5C544 412.534 422.715 531 273 531C123.285 531 2 412.534 2 266.5C2 120.466 123.285 2 273 2C422.715 2 544 120.466 544 266.5Z" fill="#985EBC" stroke="white" stroke-width="4"/>
<g filter="url(#filter0_d)">
<path d="M322.002 28.4995L363.502 25.9995C358.002 37.1662 337 66.5 322.002 122C306 202 309.502 217.5 272.502 282.5C235.502 347.5 206.502 368.5 180.501 386.5C159.701 400.9 88.8348 409.5 56.0015 412L91.5015 306.5C99.1681 270.5 126.401 186.6 152.001 137C169.292 103.5 180.501 78.0995 215.002 59.4995C261.5 34.4308 298.168 33.3328 322.002 28.4995Z" fill="#EFDE37" fill-opacity="0.9"/>
<path d="M322.002 28.4995L363.502 25.9995C358.002 37.1662 337 66.5 322.002 122C306 202 309.502 217.5 272.502 282.5C235.502 347.5 206.502 368.5 180.501 386.5C159.701 400.9 88.8348 409.5 56.0015 412L91.5015 306.5C99.1681 270.5 126.401 186.6 152.001 137C169.292 103.5 180.501 78.0995 215.002 59.4995C261.5 34.4308 298.168 33.3328 322.002 28.4995Z" fill="url(#paint0_linear)" fill-opacity="0.8"/>
</g>
<g filter="url(#filter1_d)">
<path d="M270.5 283.499C360 293.5 396 291.166 435.5 288.999C437.667 298.333 434.134 318.777 396.5 362.499C362.5 401.999 299.5 416.999 242 424.499C214.4 428.099 106.5 418.666 56 413.499C66.4 380.699 87.5 362.499 118.5 332.499C152 295.499 231.244 279.113 270.5 283.499Z" fill="#EFDE37" fill-opacity="0.9"/>
<path d="M270.5 283.499C360 293.5 396 291.166 435.5 288.999C437.667 298.333 434.134 318.777 396.5 362.499C362.5 401.999 299.5 416.999 242 424.499C214.4 428.099 106.5 418.666 56 413.499C66.4 380.699 87.5 362.499 118.5 332.499C152 295.499 231.244 279.113 270.5 283.499Z" fill="url(#paint1_linear)" fill-opacity="0.8"/>
</g>
<g filter="url(#filter2_d)">
<ellipse cx="464" cy="386.5" rx="28" ry="25.5" fill="#FF9A76"/>
<ellipse cx="464" cy="386.5" rx="28" ry="25.5" fill="url(#paint2_linear)"/>
</g>
<defs>
<filter id="filter0_d" x="52.0015" y="25.9995" width="315.5" height="394" filterUnits="userSpaceOnUse" color-interpolation-filters="sRGB">
<feFlood flood-opacity="0" result="BackgroundImageFix"/>
<feColorMatrix in="SourceAlpha" type="matrix" values="0 0 0 0 0 0 0 0 0 0 0 0 0 0 0 0 0 0 127 0"/>
<feOffset dy="4"/>
<feGaussianBlur stdDeviation="2"/>
<feColorMatrix type="matrix" values="0 0 0 0 0 0 0 0 0 0 0 0 0 0 0 0 0 0 0.36 0"/>
<feBlend mode="normal" in2="BackgroundImageFix" result="effect1_dropShadow"/>
<feBlend mode="normal" in="SourceGraphic" in2="effect1_dropShadow" result="shape"/>
</filter>
<filter id="filter1_d" x="52" y="282.804" width="387.997" height="150.494" filterUnits="userSpaceOnUse" color-interpolation-filters="sRGB">
<feFlood flood-opacity="0" result="BackgroundImageFix"/>
<feColorMatrix in="SourceAlpha" type="matrix" values="0 0 0 0 0 0 0 0 0 0 0 0 0 0 0 0 0 0 127 0"/>
<feOffset dy="4"/>
<feGaussianBlur stdDeviation="2"/>
<feColorMatrix type="matrix" values="0 0 0 0 0 0 0 0 0 0 0 0 0 0 0 0 0 0 0.25 0"/>
<feBlend mode="normal" in2="BackgroundImageFix" result="effect1_dropShadow"/>
<feBlend mode="normal" in="SourceGraphic" in2="effect1_dropShadow" result="shape"/>
</filter>
<filter id="filter2_d" x="432" y="361" width="64" height="59" filterUnits="userSpaceOnUse" color-interpolation-filters="sRGB">
<feFlood flood-opacity="0" result="BackgroundImageFix"/>
<feColorMatrix in="SourceAlpha" type="matrix" values="0 0 0 0 0 0 0 0 0 0 0 0 0 0 0 0 0 0 127 0"/>
<feOffset dy="4"/>
<feGaussianBlur stdDeviation="2"/>
<feColorMatrix type="matrix" values="0 0 0 0 0 0 0 0 0 0 0 0 0 0 0 0 0 0 0.25 0"/>
<feBlend mode="normal" in2="BackgroundImageFix" result="effect1_dropShadow"/>
<feBlend mode="normal" in="SourceGraphic" in2="effect1_dropShadow" result="shape"/>
</filter>
<linearGradient id="paint0_linear" x1="404.502" y1="265.5" x2="15.5014" y2="350.5" gradientUnits="userSpaceOnUse">
<stop stop-color="#FF9A76"/>
<stop offset="1" stop-color="white" stop-opacity="0"/>
</linearGradient>
<linearGradient id="paint1_linear" x1="332" y1="603.5" x2="124" y2="603.5" gradientUnits="userSpaceOnUse">
<stop stop-color="#FF9A76"/>
<stop offset="0.291667" stop-color="#FFC6B2" stop-opacity="0.562568"/>
<stop offset="1" stop-color="white" stop-opacity="0"/>
</linearGradient>
<linearGradient id="paint2_linear" x1="464" y1="361" x2="464" y2="412" gradientUnits="userSpaceOnUse">
<stop stop-color="#FFE457"/>
<stop offset="1" stop-color="white" stop-opacity="0"/>
</linearGradient>
</defs>
</svg>
